<?xml version='1.0' encoding='utf-8'?>
<svg xmlns="http://www.w3.org/2000/svg" width="673" height="88" viewBox="0 0 673 88" preserveAspectRatio="xMinYMin meet"><image href="base_grid_unit.svg" x="0" y="0" width="10" height="10" /><image href="base_grid_unit.svg" x="13" y="0" width="10" height="10" /><image href="base_grid_unit.svg" x="26" y="0" width="10" height="10" /><image href="base_grid_unit.svg" x="39" y="0" width="10" height="10" /><image href="base_grid_unit.svg" x="52" y="0" width="10" height="10" /><image href="base_grid_unit.svg" x="65" y="0" width="10" height="10" /><image href="base_grid_unit.svg" x="78" y="0" width="10" height="10" /><image href="base_grid_unit.svg" x="91" y="0" width="10" height="10" /><image href="base_grid_unit.svg" x="104" y="0" width="10" height="10" /><image href="base_grid_unit.svg" x="117" y="0" width="10" height="10" /><image href="base_grid_unit.svg" x="130" y="0" width="10" height="10" /><image href="base_grid_unit.svg" x="143" y="0" width="10" height="10" /><image href="base_grid_unit.svg" x="156" y="0" width="10" height="10" /><image href="base_grid_unit.svg" x="169" y="0" width="10" height="10" /><image href="base_grid_unit.svg" x="182" y="0" width="10" height="10" /><image href="base_grid_unit.svg" x="195" y="0" width="10" height="10" /><image href="base_grid_unit.svg" x="208" y="0" width="10" height="10" /><image href="base_grid_unit.svg" x="221" y="0" width="10" height="10" /><image href="base_grid_unit.svg" x="234" y="0" width="10" height="10" /><image href="base_grid_unit.svg" x="247" y="0" width="10" height="10" /><image href="base_grid_unit.svg" x="260" y="0" width="10" height="10" /><image href="base_grid_unit.svg" x="273" y="0" width="10" height="10" /><image href="base_grid_unit.svg" x="286" y="0" width="10" height="10" /><image href="base_grid_unit.svg" x="299" y="0" width="10" height="10" /><image href="base_grid_unit.svg" x="312" y="0" width="10" height="10" /><image href="base_grid_unit.svg" x="325" y="0" width="10" height="10" /><image href="base_grid_unit.svg" x="338" y="0" width="10" height="10" /><image href="base_grid_unit.svg" x="351" y="0" width="10" height="10" /><image href="base_grid_unit.svg" x="364" y="0" width="10" height="10" /><image href="base_grid_unit.svg" x="377" y="0" width="10" height="10" /><image href="base_grid_unit.svg" x="390" y="0" width="10" height="10" /><image href="base_grid_unit.svg" x="403" y="0" width="10" height="10" /><image href="base_grid_unit.svg" x="416" y="0" width="10" height="10" /><image href="base_grid_unit.svg" x="429" y="0" width="10" height="10" /><image href="base_grid_unit.svg" x="442" y="0" width="10" height="10" /><image href="base_grid_unit.svg" x="455" y="0" width="10" height="10" /><image href="base_grid_unit.svg" x="468" y="0" width="10" height="10" /><image href="base_grid_unit.svg" x="481" y="0" width="10" height="10" /><image href="base_grid_unit.svg" x="494" y="0" width="10" height="10" /><image href="base_grid_unit.svg" x="507" y="0" width="10" height="10" /><image href="base_grid_unit.svg" x="520" y="0" width="10" height="10" /><image href="base_grid_unit.svg" x="533" y="0" width="10" height="10" /><image href="base_grid_unit.svg" x="546" y="0" width="10" height="10" /><image href="base_grid_unit.svg" x="559" y="0" width="10" height="10" /><image href="base_grid_unit.svg" x="572" y="0" width="10" height="10" /><image href="base_grid_unit.svg" x="585" y="0" width="10" height="10" /><image href="base_grid_unit.svg" x="598" y="0" width="10" height="10" /><image href="base_grid_unit.svg" x="611" y="0" width="10" height="10" /><image href="base_grid_unit.svg" x="624" y="0" width="10" height="10" /><image href="base_grid_unit.svg" x="637" y="0" width="10" height="10" /><image href="base_grid_unit.svg" x="650" y="0" width="10" height="10" /><image href="base_grid_unit.svg" x="663" y="0" width="10" height="10" /><image href="base_grid_unit.svg" x="0" y="13" width="10" height="10" /><image href="base_grid_unit.svg" x="13" y="13" width="10" height="10" /><image href="base_grid_unit.svg" x="26" y="13" width="10" height="10" /><image href="base_grid_unit.svg" x="39" y="13" width="10" height="10" /><image href="base_grid_unit.svg" x="52" y="13" width="10" height="10" /><image href="base_grid_unit.svg" x="65" y="13" width="10" height="10" /><image href="base_grid_unit.svg" x="78" y="13" width="10" height="10" /><image href="base_grid_unit.svg" x="91" y="13" width="10" height="10" /><image href="base_grid_unit.svg" x="104" y="13" width="10" height="10" /><image href="base_grid_unit.svg" x="117" y="13" width="10" height="10" /><image href="base_grid_unit.svg" x="130" y="13" width="10" height="10" /><image href="base_grid_unit.svg" x="143" y="13" width="10" height="10" /><image href="base_grid_unit.svg" x="156" y="13" width="10" height="10" /><image href="base_grid_unit.svg" x="169" y="13" width="10" height="10" /><image href="base_grid_unit.svg" x="182" y="13" width="10" height="10" /><image href="base_grid_unit.svg" x="195" y="13" width="10" height="10" /><image href="base_grid_unit.svg" x="208" y="13" width="10" height="10" /><image href="base_grid_unit.svg" x="221" y="13" width="10" height="10" /><image href="base_grid_unit.svg" x="234" y="13" width="10" height="10" /><image href="base_grid_unit.svg" x="247" y="13" width="10" height="10" /><image href="base_grid_unit.svg" x="260" y="13" width="10" height="10" /><image href="base_grid_unit.svg" x="273" y="13" width="10" height="10" /><image href="base_grid_unit.svg" x="286" y="13" width="10" height="10" /><image href="base_grid_unit.svg" x="299" y="13" width="10" height="10" /><image href="base_grid_unit.svg" x="312" y="13" width="10" height="10" /><image href="base_grid_unit.svg" x="325" y="13" width="10" height="10" /><image href="base_grid_unit.svg" x="338" y="13" width="10" height="10" /><image href="base_grid_unit.svg" x="351" y="13" width="10" height="10" /><image href="base_grid_unit.svg" x="364" y="13" width="10" height="10" /><image href="base_grid_unit.svg" x="377" y="13" width="10" height="10" /><image href="base_grid_unit.svg" x="390" y="13" width="10" height="10" /><image href="base_grid_unit.svg" x="403" y="13" width="10" height="10" /><image href="base_grid_unit.svg" x="416" y="13" width="10" height="10" /><image href="base_grid_unit.svg" x="429" y="13" width="10" height="10" /><image href="base_grid_unit.svg" x="442" y="13" width="10" height="10" /><image href="base_grid_unit.svg" x="455" y="13" width="10" height="10" /><image href="base_grid_unit.svg" x="468" y="13" width="10" height="10" /><image href="base_grid_unit.svg" x="481" y="13" width="10" height="10" /><image href="base_grid_unit.svg" x="494" y="13" width="10" height="10" /><image href="base_grid_unit.svg" x="507" y="13" width="10" height="10" /><image href="base_grid_unit.svg" x="520" y="13" width="10" height="10" /><image href="base_grid_unit.svg" x="533" y="13" width="10" height="10" /><image href="base_grid_unit.svg" x="546" y="13" width="10" height="10" /><image href="base_grid_unit.svg" x="559" y="13" width="10" height="10" /><image href="base_grid_unit.svg" x="572" y="13" width="10" height="10" /><image href="base_grid_unit.svg" x="585" y="13" width="10" height="10" /><image href="base_grid_unit.svg" x="598" y="13" width="10" height="10" /><image href="base_grid_unit.svg" x="611" y="13" width="10" height="10" /><image href="base_grid_unit.svg" x="624" y="13" width="10" height="10" /><image href="base_grid_unit.svg" x="637" y="13" width="10" height="10" /><image href="base_grid_unit.svg" x="650" y="13" width="10" height="10" /><image href="base_grid_unit.svg" x="663" y="13" width="10" height="10" /><image href="base_grid_unit.svg" x="0" y="26" width="10" height="10" /><image href="base_grid_unit.svg" x="13" y="26" width="10" height="10" /><image href="base_grid_unit.svg" x="26" y="26" width="10" height="10" /><image href="base_grid_unit.svg" x="39" y="26" width="10" height="10" /><image href="base_grid_unit.svg" x="52" y="26" width="10" height="10" /><image href="base_grid_unit.svg" x="65" y="26" width="10" height="10" /><image href="base_grid_unit.svg" x="78" y="26" width="10" height="10" /><image href="base_grid_unit.svg" x="91" y="26" width="10" height="10" /><image href="base_grid_unit.svg" x="104" y="26" width="10" height="10" /><image href="base_grid_unit.svg" x="117" y="26" width="10" height="10" /><image href="base_grid_unit.svg" x="130" y="26" width="10" height="10" /><image href="base_grid_unit.svg" x="143" y="26" width="10" height="10" /><image href="base_grid_unit.svg" x="156" y="26" width="10" height="10" /><image href="base_grid_unit.svg" x="169" y="26" width="10" height="10" /><image href="base_grid_unit.svg" x="182" y="26" width="10" height="10" /><image href="base_grid_unit.svg" x="195" y="26" width="10" height="10" /><image href="base_grid_unit.svg" x="208" y="26" width="10" height="10" /><image href="base_grid_unit.svg" x="221" y="26" width="10" height="10" /><image href="base_grid_unit.svg" x="234" y="26" width="10" height="10" /><image href="base_grid_unit.svg" x="247" y="26" width="10" height="10" /><image href="base_grid_unit.svg" x="260" y="26" width="10" height="10" /><image href="base_grid_unit.svg" x="273" y="26" width="10" height="10" /><image href="base_grid_unit.svg" x="286" y="26" width="10" height="10" /><image href="base_grid_unit.svg" x="299" y="26" width="10" height="10" /><image href="base_grid_unit.svg" x="312" y="26" width="10" height="10" /><image href="base_grid_unit.svg" x="325" y="26" width="10" height="10" /><image href="base_grid_unit.svg" x="338" y="26" width="10" height="10" /><image href="base_grid_unit.svg" x="351" y="26" width="10" height="10" /><image href="base_grid_unit.svg" x="364" y="26" width="10" height="10" /><image href="base_grid_unit.svg" x="377" y="26" width="10" height="10" /><image href="base_grid_unit.svg" x="390" y="26" width="10" height="10" /><image href="base_grid_unit.svg" x="403" y="26" width="10" height="10" /><image href="base_grid_unit.svg" x="416" y="26" width="10" height="10" /><image href="base_grid_unit.svg" x="429" y="26" width="10" height="10" /><image href="base_grid_unit.svg" x="442" y="26" width="10" height="10" /><image href="base_grid_unit.svg" x="455" y="26" width="10" height="10" /><image href="base_grid_unit.svg" x="468" y="26" width="10" height="10" /><image href="base_grid_unit.svg" x="481" y="26" width="10" height="10" /><image href="base_grid_unit.svg" x="494" y="26" width="10" height="10" /><image href="base_grid_unit.svg" x="507" y="26" width="10" height="10" /><image href="base_grid_unit.svg" x="520" y="26" width="10" height="10" /><image href="base_grid_unit.svg" x="533" y="26" width="10" height="10" /><image href="base_grid_unit.svg" x="546" y="26" width="10" height="10" /><image href="base_grid_unit.svg" x="559" y="26" width="10" height="10" /><image href="base_grid_unit.svg" x="572" y="26" width="10" height="10" /><image href="base_grid_unit.svg" x="585" y="26" width="10" height="10" /><image href="base_grid_unit.svg" x="598" y="26" width="10" height="10" /><image href="base_grid_unit.svg" x="611" y="26" width="10" height="10" /><image href="base_grid_unit.svg" x="624" y="26" width="10" height="10" /><image href="base_grid_unit.svg" x="637" y="26" width="10" height="10" /><image href="base_grid_unit.svg" x="650" y="26" width="10" height="10" /><image href="base_grid_unit.svg" x="663" y="26" width="10" height="10" /><image href="base_grid_unit.svg" x="0" y="39" width="10" height="10" /><image href="base_grid_unit.svg" x="13" y="39" width="10" height="10" /><image href="base_grid_unit.svg" x="26" y="39" width="10" height="10" /><image href="base_grid_unit.svg" x="39" y="39" width="10" height="10" /><image href="base_grid_unit.svg" x="52" y="39" width="10" height="10" /><image href="base_grid_unit.svg" x="65" y="39" width="10" height="10" /><image href="base_grid_unit.svg" x="78" y="39" width="10" height="10" /><image href="base_grid_unit.svg" x="91" y="39" width="10" height="10" /><image href="base_grid_unit.svg" x="104" y="39" width="10" height="10" /><image href="base_grid_unit.svg" x="117" y="39" width="10" height="10" /><image href="base_grid_unit.svg" x="130" y="39" width="10" height="10" /><image href="base_grid_unit.svg" x="143" y="39" width="10" height="10" /><image href="base_grid_unit.svg" x="156" y="39" width="10" height="10" /><image href="base_grid_unit.svg" x="169" y="39" width="10" height="10" /><image href="base_grid_unit.svg" x="182" y="39" width="10" height="10" /><image href="base_grid_unit.svg" x="195" y="39" width="10" height="10" /><image href="base_grid_unit.svg" x="208" y="39" width="10" height="10" /><image href="base_grid_unit.svg" x="221" y="39" width="10" height="10" /><image href="base_grid_unit.svg" x="234" y="39" width="10" height="10" /><image href="base_grid_unit.svg" x="247" y="39" width="10" height="10" /><image href="base_grid_unit.svg" x="260" y="39" width="10" height="10" /><image href="base_grid_unit.svg" x="273" y="39" width="10" height="10" /><image href="base_grid_unit.svg" x="286" y="39" width="10" height="10" /><image href="base_grid_unit.svg" x="299" y="39" width="10" height="10" /><image href="base_grid_unit.svg" x="312" y="39" width="10" height="10" /><image href="base_grid_unit.svg" x="325" y="39" width="10" height="10" /><image href="base_grid_unit.svg" x="338" y="39" width="10" height="10" /><image href="base_grid_unit.svg" x="351" y="39" width="10" height="10" /><image href="base_grid_unit.svg" x="364" y="39" width="10" height="10" /><image href="base_grid_unit.svg" x="377" y="39" width="10" height="10" /><image href="base_grid_unit.svg" x="390" y="39" width="10" height="10" /><image href="base_grid_unit.svg" x="403" y="39" width="10" height="10" /><image href="base_grid_unit.svg" x="416" y="39" width="10" height="10" /><image href="base_grid_unit.svg" x="429" y="39" width="10" height="10" /><image href="base_grid_unit.svg" x="442" y="39" width="10" height="10" /><image href="base_grid_unit.svg" x="455" y="39" width="10" height="10" /><image href="base_grid_unit.svg" x="468" y="39" width="10" height="10" /><image href="base_grid_unit.svg" x="481" y="39" width="10" height="10" /><image href="base_grid_unit.svg" x="494" y="39" width="10" height="10" /><image href="base_grid_unit.svg" x="507" y="39" width="10" height="10" /><image href="base_grid_unit.svg" x="520" y="39" width="10" height="10" /><image href="base_grid_unit.svg" x="533" y="39" width="10" height="10" /><image href="base_grid_unit.svg" x="546" y="39" width="10" height="10" /><image href="base_grid_unit.svg" x="559" y="39" width="10" height="10" /><image href="base_grid_unit.svg" x="572" y="39" width="10" height="10" /><image href="base_grid_unit.svg" x="585" y="39" width="10" height="10" /><image href="base_grid_unit.svg" x="598" y="39" width="10" height="10" /><image href="base_grid_unit.svg" x="611" y="39" width="10" height="10" /><image href="base_grid_unit.svg" x="624" y="39" width="10" height="10" /><image href="base_grid_unit.svg" x="637" y="39" width="10" height="10" /><image href="base_grid_unit.svg" x="650" y="39" width="10" height="10" /><image href="base_grid_unit.svg" x="663" y="39" width="10" height="10" /><image href="base_grid_unit.svg" x="0" y="52" width="10" height="10" /><image href="base_grid_unit.svg" x="13" y="52" width="10" height="10" /><image href="base_grid_unit.svg" x="26" y="52" width="10" height="10" /><image href="base_grid_unit.svg" x="39" y="52" width="10" height="10" /><image href="base_grid_unit.svg" x="52" y="52" width="10" height="10" /><image href="base_grid_unit.svg" x="65" y="52" width="10" height="10" /><image href="base_grid_unit.svg" x="78" y="52" width="10" height="10" /><image href="base_grid_unit.svg" x="91" y="52" width="10" height="10" /><image href="base_grid_unit.svg" x="104" y="52" width="10" height="10" /><image href="base_grid_unit.svg" x="117" y="52" width="10" height="10" /><image href="base_grid_unit.svg" x="130" y="52" width="10" height="10" /><image href="base_grid_unit.svg" x="143" y="52" width="10" height="10" /><image href="base_grid_unit.svg" x="156" y="52" width="10" height="10" /><image href="base_grid_unit.svg" x="169" y="52" width="10" height="10" /><image href="base_grid_unit.svg" x="182" y="52" width="10" height="10" /><image href="base_grid_unit.svg" x="195" y="52" width="10" height="10" /><image href="base_grid_unit.svg" x="208" y="52" width="10" height="10" /><image href="base_grid_unit.svg" x="221" y="52" width="10" height="10" /><image href="base_grid_unit.svg" x="234" y="52" width="10" height="10" /><image href="base_grid_unit.svg" x="247" y="52" width="10" height="10" /><image href="base_grid_unit.svg" x="260" y="52" width="10" height="10" /><image href="base_grid_unit.svg" x="273" y="52" width="10" height="10" /><image href="base_grid_unit.svg" x="286" y="52" width="10" height="10" /><image href="base_grid_unit.svg" x="299" y="52" width="10" height="10" /><image href="base_grid_unit.svg" x="312" y="52" width="10" height="10" /><image href="base_grid_unit.svg" x="325" y="52" width="10" height="10" /><image href="base_grid_unit.svg" x="338" y="52" width="10" height="10" /><image href="base_grid_unit.svg" x="351" y="52" width="10" height="10" /><image href="base_grid_unit.svg" x="364" y="52" width="10" height="10" /><image href="base_grid_unit.svg" x="377" y="52" width="10" height="10" /><image href="base_grid_unit.svg" x="390" y="52" width="10" height="10" /><image href="base_grid_unit.svg" x="403" y="52" width="10" height="10" /><image href="base_grid_unit.svg" x="416" y="52" width="10" height="10" /><image href="base_grid_unit.svg" x="429" y="52" width="10" height="10" /><image href="base_grid_unit.svg" x="442" y="52" width="10" height="10" /><image href="base_grid_unit.svg" x="455" y="52" width="10" height="10" /><image href="base_grid_unit.svg" x="468" y="52" width="10" height="10" /><image href="base_grid_unit.svg" x="481" y="52" width="10" height="10" /><image href="base_grid_unit.svg" x="494" y="52" width="10" height="10" /><image href="base_grid_unit.svg" x="507" y="52" width="10" height="10" /><image href="base_grid_unit.svg" x="520" y="52" width="10" height="10" /><image href="base_grid_unit.svg" x="533" y="52" width="10" height="10" /><image href="base_grid_unit.svg" x="546" y="52" width="10" height="10" /><image href="base_grid_unit.svg" x="559" y="52" width="10" height="10" /><image href="base_grid_unit.svg" x="572" y="52" width="10" height="10" /><image href="base_grid_unit.svg" x="585" y="52" width="10" height="10" /><image href="base_grid_unit.svg" x="598" y="52" width="10" height="10" /><image href="base_grid_unit.svg" x="611" y="52" width="10" height="10" /><image href="base_grid_unit.svg" x="624" y="52" width="10" height="10" /><image href="base_grid_unit.svg" x="637" y="52" width="10" height="10" /><image href="base_grid_unit.svg" x="650" y="52" width="10" height="10" /><image href="base_grid_unit.svg" x="663" y="52" width="10" height="10" /><image href="base_grid_unit.svg" x="0" y="65" width="10" height="10" /><image href="base_grid_unit.svg" x="13" y="65" width="10" height="10" /><image href="base_grid_unit.svg" x="26" y="65" width="10" height="10" /><image href="base_grid_unit.svg" x="39" y="65" width="10" height="10" /><image href="base_grid_unit.svg" x="52" y="65" width="10" height="10" /><image href="base_grid_unit.svg" x="65" y="65" width="10" height="10" /><image href="base_grid_unit.svg" x="78" y="65" width="10" height="10" /><image href="base_grid_unit.svg" x="91" y="65" width="10" height="10" /><image href="base_grid_unit.svg" x="104" y="65" width="10" height="10" /><image href="base_grid_unit.svg" x="117" y="65" width="10" height="10" /><image href="base_grid_unit.svg" x="130" y="65" width="10" height="10" /><image href="base_grid_unit.svg" x="143" y="65" width="10" height="10" /><image href="base_grid_unit.svg" x="156" y="65" width="10" height="10" /><image href="base_grid_unit.svg" x="169" y="65" width="10" height="10" /><image href="base_grid_unit.svg" x="182" y="65" width="10" height="10" /><image href="base_grid_unit.svg" x="195" y="65" width="10" height="10" /><image href="base_grid_unit.svg" x="208" y="65" width="10" height="10" /><image href="base_grid_unit.svg" x="221" y="65" width="10" height="10" /><image href="base_grid_unit.svg" x="234" y="65" width="10" height="10" /><image href="base_grid_unit.svg" x="247" y="65" width="10" height="10" /><image href="base_grid_unit.svg" x="260" y="65" width="10" height="10" /><image href="base_grid_unit.svg" x="273" y="65" width="10" height="10" /><image href="base_grid_unit.svg" x="286" y="65" width="10" height="10" /><image href="base_grid_unit.svg" x="299" y="65" width="10" height="10" /><image href="base_grid_unit.svg" x="312" y="65" width="10" height="10" /><image href="base_grid_unit.svg" x="325" y="65" width="10" height="10" /><image href="base_grid_unit.svg" x="338" y="65" width="10" height="10" /><image href="base_grid_unit.svg" x="351" y="65" width="10" height="10" /><image href="base_grid_unit.svg" x="364" y="65" width="10" height="10" /><image href="base_grid_unit.svg" x="377" y="65" width="10" height="10" /><image href="base_grid_unit.svg" x="390" y="65" width="10" height="10" /><image href="base_grid_unit.svg" x="403" y="65" width="10" height="10" /><image href="base_grid_unit.svg" x="416" y="65" width="10" height="10" /><image href="base_grid_unit.svg" x="429" y="65" width="10" height="10" /><image href="base_grid_unit.svg" x="442" y="65" width="10" height="10" /><image href="base_grid_unit.svg" x="455" y="65" width="10" height="10" /><image href="base_grid_unit.svg" x="468" y="65" width="10" height="10" /><image href="base_grid_unit.svg" x="481" y="65" width="10" height="10" /><image href="base_grid_unit.svg" x="494" y="65" width="10" height="10" /><image href="base_grid_unit.svg" x="507" y="65" width="10" height="10" /><image href="base_grid_unit.svg" x="520" y="65" width="10" height="10" /><image href="base_grid_unit.svg" x="533" y="65" width="10" height="10" /><image href="base_grid_unit.svg" x="546" y="65" width="10" height="10" /><image href="base_grid_unit.svg" x="559" y="65" width="10" height="10" /><image href="base_grid_unit.svg" x="572" y="65" width="10" height="10" /><image href="base_grid_unit.svg" x="585" y="65" width="10" height="10" /><image href="base_grid_unit.svg" x="598" y="65" width="10" height="10" /><image href="base_grid_unit.svg" x="611" y="65" width="10" height="10" /><image href="base_grid_unit.svg" x="624" y="65" width="10" height="10" /><image href="base_grid_unit.svg" x="637" y="65" width="10" height="10" /><image href="base_grid_unit.svg" x="650" y="65" width="10" height="10" /><image href="base_grid_unit.svg" x="663" y="65" width="10" height="10" /><image href="base_grid_unit.svg" x="0" y="78" width="10" height="10" /><image href="base_grid_unit.svg" x="13" y="78" width="10" height="10" /><image href="base_grid_unit.svg" x="26" y="78" width="10" height="10" /><image href="base_grid_unit.svg" x="39" y="78" width="10" height="10" /><image href="base_grid_unit.svg" x="52" y="78" width="10" height="10" /><image href="base_grid_unit.svg" x="65" y="78" width="10" height="10" /><image href="base_grid_unit.svg" x="78" y="78" width="10" height="10" /><image href="base_grid_unit.svg" x="91" y="78" width="10" height="10" /><image href="base_grid_unit.svg" x="104" y="78" width="10" height="10" /><image href="base_grid_unit.svg" x="117" y="78" width="10" height="10" /><image href="base_grid_unit.svg" x="130" y="78" width="10" height="10" /><image href="base_grid_unit.svg" x="143" y="78" width="10" height="10" /><image href="base_grid_unit.svg" x="156" y="78" width="10" height="10" /><image href="base_grid_unit.svg" x="169" y="78" width="10" height="10" /><image href="base_grid_unit.svg" x="182" y="78" width="10" height="10" /><image href="base_grid_unit.svg" x="195" y="78" width="10" height="10" /><image href="base_grid_unit.svg" x="208" y="78" width="10" height="10" /><image href="base_grid_unit.svg" x="221" y="78" width="10" height="10" /><image href="base_grid_unit.svg" x="234" y="78" width="10" height="10" /><image href="base_grid_unit.svg" x="247" y="78" width="10" height="10" /><image href="base_grid_unit.svg" x="260" y="78" width="10" height="10" /><image href="base_grid_unit.svg" x="273" y="78" width="10" height="10" /><image href="base_grid_unit.svg" x="286" y="78" width="10" height="10" /><image href="base_grid_unit.svg" x="299" y="78" width="10" height="10" /><image href="base_grid_unit.svg" x="312" y="78" width="10" height="10" /><image href="base_grid_unit.svg" x="325" y="78" width="10" height="10" /><image href="base_grid_unit.svg" x="338" y="78" width="10" height="10" /><image href="base_grid_unit.svg" x="351" y="78" width="10" height="10" /><image href="base_grid_unit.svg" x="364" y="78" width="10" height="10" /><image href="base_grid_unit.svg" x="377" y="78" width="10" height="10" /><image href="base_grid_unit.svg" x="390" y="78" width="10" height="10" /><image href="base_grid_unit.svg" x="403" y="78" width="10" height="10" /><image href="base_grid_unit.svg" x="416" y="78" width="10" height="10" /><image href="base_grid_unit.svg" x="429" y="78" width="10" height="10" /><image href="base_grid_unit.svg" x="442" y="78" width="10" height="10" /><image href="base_grid_unit.svg" x="455" y="78" width="10" height="10" /><image href="base_grid_unit.svg" x="468" y="78" width="10" height="10" /><image href="base_grid_unit.svg" x="481" y="78" width="10" height="10" /><image href="base_grid_unit.svg" x="494" y="78" width="10" height="10" /><image href="base_grid_unit.svg" x="507" y="78" width="10" height="10" /><image href="base_grid_unit.svg" x="520" y="78" width="10" height="10" /><image href="base_grid_unit.svg" x="533" y="78" width="10" height="10" /><image href="base_grid_unit.svg" x="546" y="78" width="10" height="10" /><image href="base_grid_unit.svg" x="559" y="78" width="10" height="10" /><image href="base_grid_unit.svg" x="572" y="78" width="10" height="10" /><image href="base_grid_unit.svg" x="585" y="78" width="10" height="10" /><image href="base_grid_unit.svg" x="598" y="78" width="10" height="10" /><image href="base_grid_unit.svg" x="611" y="78" width="10" height="10" /><image href="base_grid_unit.svg" x="624" y="78" width="10" height="10" /><image href="base_grid_unit.svg" x="637" y="78" width="10" height="10" /><image href="base_grid_unit.svg" x="650" y="78" width="10" height="10" /><image href="Alive.svg" x="0" y="0" width="10" height="10" /><image href="Alive.svg" x="26" y="0" width="10" height="10" /><image href="Alive.svg" x="52" y="0" width="10" height="10" /><image href="Alive.svg" x="78" y="0" width="10" height="10" /><image href="Alive.svg" x="104" y="0" width="10" height="10" /><image href="Alive.svg" x="130" y="0" width="10" height="10" /><image href="Alive.svg" x="156" y="0" width="10" height="10" /><image href="Alive.svg" x="182" y="0" width="10" height="10" /><image href="Alive.svg" x="208" y="0" width="10" height="10" /><image href="Alive.svg" x="234" y="0" width="10" height="10" /><image href="Alive.svg" x="260" y="0" width="10" height="10" /><image href="Alive.svg" x="286" y="0" width="10" height="10" /><image href="Alive.svg" x="312" y="0" width="10" height="10" /><image href="Alive.svg" x="338" y="0" width="10" height="10" /><image href="Alive.svg" x="364" y="0" width="10" height="10" /><image href="Alive.svg" x="390" y="0" width="10" height="10" /><image href="Alive.svg" x="416" y="0" width="10" height="10" /><image href="Alive.svg" x="442" y="0" width="10" height="10" /><image href="Alive.svg" x="468" y="0" width="10" height="10" /><image href="Alive.svg" x="494" y="0" width="10" height="10" /><image href="Alive.svg" x="520" y="0" width="10" height="10" /><image href="Alive.svg" x="546" y="0" width="10" height="10" /><image href="Alive.svg" x="572" y="0" width="10" height="10" /><image href="Alive.svg" x="598" y="0" width="10" height="10" /><image href="Alive.svg" x="624" y="0" width="10" height="10" /><image href="Alive.svg" x="650" y="0" width="10" height="10" /><image href="Alive.svg" x="0" y="13" width="10" height="10" /><image href="Alive.svg" x="26" y="13" width="10" height="10" /><image href="Alive.svg" x="52" y="13" width="10" height="10" /><image href="Alive.svg" x="78" y="13" width="10" height="10" /><image href="Alive.svg" x="104" y="13" width="10" height="10" /><image href="Alive.svg" x="130" y="13" width="10" height="10" /><image href="Alive.svg" x="156" y="13" width="10" height="10" /><image href="Alive.svg" x="182" y="13" width="10" height="10" /><image href="Alive.svg" x="208" y="13" width="10" height="10" /><image href="Alive.svg" x="234" y="13" width="10" height="10" /><image href="Alive.svg" x="260" y="13" width="10" height="10" /><image href="Alive.svg" x="286" y="13" width="10" height="10" /><image href="Alive.svg" x="312" y="13" width="10" height="10" /><image href="Alive.svg" x="338" y="13" width="10" height="10" /><image href="Alive.svg" x="364" y="13" width="10" height="10" /><image href="Alive.svg" x="390" y="13" width="10" height="10" /><image href="Alive.svg" x="416" y="13" width="10" height="10" /><image href="Alive.svg" x="442" y="13" width="10" height="10" /><image href="Alive.svg" x="468" y="13" width="10" height="10" /><image href="Alive.svg" x="494" y="13" width="10" height="10" /><image href="Alive.svg" x="520" y="13" width="10" height="10" /><image href="Alive.svg" x="546" y="13" width="10" height="10" /><image href="Alive.svg" x="572" y="13" width="10" height="10" /><image href="Alive.svg" x="598" y="13" width="10" height="10" /><image href="Alive.svg" x="624" y="13" width="10" height="10" /><image href="Alive.svg" x="650" y="13" width="10" height="10" /><image href="Alive.svg" x="0" y="26" width="10" height="10" /><image href="Alive.svg" x="26" y="26" width="10" height="10" /><image href="Alive.svg" x="52" y="26" width="10" height="10" /><image href="Alive.svg" x="78" y="26" width="10" height="10" /><image href="Alive.svg" x="104" y="26" width="10" height="10" /><image href="Alive.svg" x="130" y="26" width="10" height="10" /><image href="Alive.svg" x="156" y="26" width="10" height="10" /><image href="Alive.svg" x="182" y="26" width="10" height="10" /><image href="Alive.svg" x="208" y="26" width="10" height="10" /><image href="Alive.svg" x="234" y="26" width="10" height="10" /><image href="Alive.svg" x="260" y="26" width="10" height="10" /><image href="Alive.svg" x="286" y="26" width="10" height="10" /><image href="Alive.svg" x="312" y="26" width="10" height="10" /><image href="Alive.svg" x="338" y="26" width="10" height="10" /><image href="Alive.svg" x="364" y="26" width="10" height="10" /><image href="Alive.svg" x="390" y="26" width="10" height="10" /><image href="Alive.svg" x="416" y="26" width="10" height="10" /><image href="Alive.svg" x="442" y="26" width="10" height="10" /><image href="Alive.svg" x="468" y="26" width="10" height="10" /><image href="Alive.svg" x="494" y="26" width="10" height="10" /><image href="Alive.svg" x="520" y="26" width="10" height="10" /><image href="Alive.svg" x="546" y="26" width="10" height="10" /><image href="Alive.svg" x="572" y="26" width="10" height="10" /><image href="Alive.svg" x="598" y="26" width="10" height="10" /><image href="Alive.svg" x="624" y="26" width="10" height="10" /><image href="Alive.svg" x="650" y="26" width="10" height="10" /><image href="Alive.svg" x="0" y="39" width="10" height="10" /><image href="Alive.svg" x="26" y="39" width="10" height="10" /><image href="Alive.svg" x="52" y="39" width="10" height="10" /><image href="Alive.svg" x="78" y="39" width="10" height="10" /><image href="Alive.svg" x="104" y="39" width="10" height="10" /><image href="Alive.svg" x="130" y="39" width="10" height="10" /><image href="Alive.svg" x="156" y="39" width="10" height="10" /><image href="Alive.svg" x="182" y="39" width="10" height="10" /><image href="Alive.svg" x="208" y="39" width="10" height="10" /><image href="Alive.svg" x="234" y="39" width="10" height="10" /><image href="Alive.svg" x="260" y="39" width="10" height="10" /><image href="Alive.svg" x="286" y="39" width="10" height="10" /><image href="Alive.svg" x="312" y="39" width="10" height="10" /><image href="Alive.svg" x="338" y="39" width="10" height="10" /><image href="Alive.svg" x="364" y="39" width="10" height="10" /><image href="Alive.svg" x="390" y="39" width="10" height="10" /><image href="Alive.svg" x="416" y="39" width="10" height="10" /><image href="Alive.svg" x="442" y="39" width="10" height="10" /><image href="Alive.svg" x="468" y="39" width="10" height="10" /><image href="Alive.svg" x="494" y="39" width="10" height="10" /><image href="Alive.svg" x="520" y="39" width="10" height="10" /><image href="Alive.svg" x="546" y="39" width="10" height="10" /><image href="Alive.svg" x="572" y="39" width="10" height="10" /><image href="Alive.svg" x="598" y="39" width="10" height="10" /><image href="Alive.svg" x="624" y="39" width="10" height="10" /><image href="Alive.svg" x="650" y="39" width="10" height="10" /><image href="Alive.svg" x="0" y="52" width="10" height="10" /><image href="Alive.svg" x="26" y="52" width="10" height="10" /><image href="Alive.svg" x="52" y="52" width="10" height="10" /><image href="Alive.svg" x="78" y="52" width="10" height="10" /><image href="Alive.svg" x="104" y="52" width="10" height="10" /><image href="Alive.svg" x="130" y="52" width="10" height="10" /><image href="Alive.svg" x="156" y="52" width="10" height="10" /><image href="Alive.svg" x="182" y="52" width="10" height="10" /><image href="Alive.svg" x="208" y="52" width="10" height="10" /><image href="Alive.svg" x="234" y="52" width="10" height="10" /><image href="Alive.svg" x="260" y="52" width="10" height="10" /><image href="Alive.svg" x="286" y="52" width="10" height="10" /><image href="Alive.svg" x="312" y="52" width="10" height="10" /><image href="Alive.svg" x="338" y="52" width="10" height="10" /><image href="Alive.svg" x="364" y="52" width="10" height="10" /><image href="Alive.svg" x="390" y="52" width="10" height="10" /><image href="Alive.svg" x="416" y="52" width="10" height="10" /><image href="Alive.svg" x="442" y="52" width="10" height="10" /><image href="Alive.svg" x="468" y="52" width="10" height="10" /><image href="Alive.svg" x="494" y="52" width="10" height="10" /><image href="Alive.svg" x="520" y="52" width="10" height="10" /><image href="Alive.svg" x="546" y="52" width="10" height="10" /><image href="Alive.svg" x="572" y="52" width="10" height="10" /><image href="Alive.svg" x="598" y="52" width="10" height="10" /><image href="Alive.svg" x="624" y="52" width="10" height="10" /><image href="Alive.svg" x="650" y="52" width="10" height="10" /><image href="Alive.svg" x="0" y="65" width="10" height="10" /><image href="Alive.svg" x="26" y="65" width="10" height="10" /><image href="Alive.svg" x="52" y="65" width="10" height="10" /><image href="Alive.svg" x="78" y="65" width="10" height="10" /><image href="Alive.svg" x="104" y="65" width="10" height="10" /><image href="Alive.svg" x="130" y="65" width="10" height="10" /><image href="Alive.svg" x="156" y="65" width="10" height="10" /><image href="Alive.svg" x="182" y="65" width="10" height="10" /><image href="Alive.svg" x="208" y="65" width="10" height="10" /><image href="Alive.svg" x="234" y="65" width="10" height="10" /><image href="Alive.svg" x="260" y="65" width="10" height="10" /><image href="Alive.svg" x="286" y="65" width="10" height="10" /><image href="Alive.svg" x="312" y="65" width="10" height="10" /><image href="Alive.svg" x="338" y="65" width="10" height="10" /><image href="Alive.svg" x="364" y="65" width="10" height="10" /><image href="Alive.svg" x="390" y="65" width="10" height="10" /><image href="Alive.svg" x="416" y="65" width="10" height="10" /><image href="Alive.svg" x="442" y="65" width="10" height="10" /><image href="Alive.svg" x="468" y="65" width="10" height="10" /><image href="Alive.svg" x="494" y="65" width="10" height="10" /><image href="Alive.svg" x="520" y="65" width="10" height="10" /><image href="Alive.svg" x="546" y="65" width="10" height="10" /><image href="Alive.svg" x="572" y="65" width="10" height="10" /><image href="Alive.svg" x="598" y="65" width="10" height="10" /><image href="Alive.svg" x="624" y="65" width="10" height="10" /><image href="Alive.svg" x="650" y="65" width="10" height="10" /><image href="Alive.svg" x="0" y="78" width="10" height="10" /><image href="Alive.svg" x="26" y="78" width="10" height="10" /><image href="Alive.svg" x="52" y="78" width="10" height="10" /><image href="Alive.svg" x="78" y="78" width="10" height="10" /><image href="Alive.svg" x="104" y="78" width="10" height="10" /><image href="Alive.svg" x="130" y="78" width="10" height="10" /><image href="Alive.svg" x="156" y="78" width="10" height="10" /><image href="Alive.svg" x="182" y="78" width="10" height="10" /><image href="Alive.svg" x="208" y="78" width="10" height="10" /><image href="Alive.svg" x="234" y="78" width="10" height="10" /><image href="Alive.svg" x="260" y="78" width="10" height="10" /><image href="Alive.svg" x="286" y="78" width="10" height="10" /><image href="Alive.svg" x="312" y="78" width="10" height="10" /><image href="Alive.svg" x="338" y="78" width="10" height="10" /><image href="Alive.svg" x="364" y="78" width="10" height="10" /><image href="Alive.svg" x="390" y="78" width="10" height="10" /><image href="Alive.svg" x="416" y="78" width="10" height="10" /><image href="Alive.svg" x="442" y="78" width="10" height="10" /><image href="Alive.svg" x="468" y="78" width="10" height="10" /><image href="Alive.svg" x="494" y="78" width="10" height="10" /><image href="Alive.svg" x="520" y="78" width="10" height="10" /><image href="Alive.svg" x="546" y="78" width="10" height="10" /><image href="Alive.svg" x="572" y="78" width="10" height="10" /><image href="Alive.svg" x="598" y="78" width="10" height="10" /><image href="Alive.svg" x="624" y="78" width="10" height="10" /><image href="Alive.svg" x="650" y="78" width="10" height="10" /></svg>